<?xml version="1.0" encoding="utf-8"?>
<svg width="48px" height="48px" viewBox="0 0 500 500" xmlns="http://www.w3.org/2000/svg">
  <g style="" transform="matrix(1, 0, 0, 1, -2600.000038743019, -1600.000023841858)">
    <path id="question--and--answer_1_" d="M 2798.243 2000 L 2760.223 1942.629 L 2723.046 1942.629 C 2710.341 1942.629 2700 1932.231 2700 1919.46 L 2700 1821.288 C 2700 1808.518 2710.341 1798.121 2723.046 1798.121 L 2836.717 1798.121 L 2836.717 1723.168 C 2836.717 1710.394 2847.061 1700 2859.765 1700 L 2976.954 1700 C 2989.668 1700 3000 1710.394 3000 1723.168 L 3000 1801.704 C 3000 1814.478 2989.659 1824.872 2976.954 1824.872 L 2949.834 1824.872 L 2931.279 1862.188 L 2924.979 1859.025 L 2944.511 1819.758 C 2945.118 1818.559 2946.329 1817.804 2947.655 1817.804 L 2976.954 1817.804 C 2985.78 1817.804 2992.968 1810.578 2992.968 1801.704 L 2992.968 1723.168 C 2992.968 1714.292 2985.79 1707.067 2976.954 1707.067 L 2859.765 1707.067 C 2850.937 1707.067 2843.75 1714.292 2843.75 1723.168 L 2843.75 1798.121 L 2869.531 1798.121 C 2881.062 1798.121 2890.634 1806.672 2892.314 1817.804 L 2918.358 1817.804 L 2918.358 1824.872 L 2892.577 1824.872 L 2892.577 1919.46 C 2892.577 1932.243 2882.236 1942.629 2869.531 1942.629 L 2801.171 1942.629 L 2801.171 1935.55 L 2869.531 1935.55 C 2878.36 1935.55 2885.547 1928.335 2885.547 1919.449 L 2885.547 1821.279 C 2885.547 1812.405 2878.368 1805.18 2869.531 1805.18 L 2723.046 1805.18 C 2714.219 1805.18 2707.03 1812.405 2707.03 1821.279 L 2707.03 1919.449 C 2707.03 1928.326 2714.219 1935.55 2723.046 1935.55 L 2762.108 1935.55 C 2763.291 1935.55 2764.383 1936.15 2765.039 1937.131 L 2804.1 1996.082 L 2798.243 2000 Z M 2922.05 1777.112 L 2915.01 1777.112 C 2915.01 1765.146 2917.128 1760.65 2924.854 1756.213 C 2930.273 1753.099 2932.471 1749.673 2932.471 1744.383 C 2932.471 1734.938 2924.891 1731.591 2918.399 1731.591 C 2910.467 1731.591 2904.246 1737.216 2904.246 1744.383 L 2897.207 1744.383 C 2897.207 1733.249 2906.514 1724.523 2918.399 1724.523 C 2930.821 1724.523 2939.512 1732.691 2939.512 1744.383 C 2939.512 1754.738 2933.134 1759.59 2928.341 1762.347 C 2923.241 1765.284 2922.05 1766.992 2922.05 1777.112 Z M 2806.053 1870.425 C 2806.053 1875.843 2801.679 1880.242 2796.288 1880.242 C 2790.898 1880.242 2786.523 1875.843 2786.523 1870.425 C 2786.523 1865.006 2790.898 1860.608 2796.288 1860.608 C 2801.679 1860.608 2806.053 1865.006 2806.053 1870.425 Z M 2845.116 1860.608 C 2839.725 1860.608 2835.352 1865.006 2835.352 1870.425 C 2835.352 1875.843 2839.725 1880.242 2845.116 1880.242 C 2850.507 1880.242 2854.883 1875.843 2854.883 1870.425 C 2854.883 1865.006 2850.507 1860.608 2845.116 1860.608 Z M 2747.461 1860.608 C 2742.071 1860.608 2737.694 1865.006 2737.694 1870.425 C 2737.694 1875.843 2742.071 1880.242 2747.461 1880.242 C 2752.851 1880.242 2757.225 1875.843 2757.225 1870.425 C 2757.225 1865.006 2752.851 1860.608 2747.461 1860.608 Z M 2918.358 1798.023 C 2921.728 1798.023 2924.463 1795.274 2924.463 1791.888 C 2924.463 1788.501 2921.728 1785.752 2918.358 1785.752 C 2914.991 1785.752 2912.255 1788.501 2912.255 1791.888 C 2912.255 1795.274 2914.991 1798.023 2918.358 1798.023 Z" style=""/>
    <ellipse style="stroke: rgb(0, 0, 0); fill: none; stroke-width: 6px;" cx="2850" cy="1850" rx="220" ry="220"/>
  </g>
</svg>