<?xml version="1.0" encoding="utf-8"?>
<svg width="500px" height="500px" viewBox="0 0 500 500" xmlns="http://www.w3.org/2000/svg" xmlns:bx="https://boxy-svg.com">
  <g style="transform-origin: 250px 250px;" transform="matrix(0.999998927116, 0.000001, -0.000001, 0.999998927116, -0.000039901595, 0.00000209845)">
    <g style="transform-origin: 250px 230px;" transform="matrix(0.9, 0, 0, 0.9, 0.000033, 42.000039)">
      <ellipse style="stroke: rgba(0, 0, 0, 0); fill: rgb(210, 168, 19);" cx="250.001" cy="99.983" rx="50.018" ry="50.018"/>
      <g id="SVGRepo_iconCarrier" transform="matrix(3.125, 0, 0, 3.125, 218.000003, 170.000003)" style="filter: none; transform-origin: 32px 80px;">
        <g>
          <path fill-rule="evenodd" clip-rule="evenodd" d="M32,14.002c-9.941,0-18,8.059-18,18s8.059,18,18,18 s18-8.059,18-18S41.941,14.002,32,14.002z M32,48.002c-8.837,0-16-7.164-16-16s7.163-16,16-16s16,7.164,16,16 S40.837,48.002,32,48.002z" style="fill: rgb(255, 255, 255); stroke-width: 0px; stroke-miterlimit: 1;"/>
          <path fill-rule="evenodd" clip-rule="evenodd" d="M32,20.002c-0.553,0-1,0.447-1,1s0.447,1,1,1 c5.522,0,10,4.477,10,10c0,0.553,0.447,1,1,1s1-0.447,1-1C44,25.375,38.627,20.002,32,20.002z" style="fill: rgb(255, 255, 255); stroke-width: 0px; stroke-miterlimit: 1;"/>
          <path fill-rule="evenodd" clip-rule="evenodd" d="M63,31H53c-0.553,0-1,0.447-1,1s0.447,1,1,1h10 c0.553,0,1-0.447,1-1S63.553,31,63,31z" style="fill: rgb(255, 255, 255); stroke-width: 0px; stroke-miterlimit: 1;"/>
          <path fill-rule="evenodd" clip-rule="evenodd" d="M11.457,36.47l-3.863,1.035c-0.534,0.144-0.851,0.692-0.707,1.226 c0.143,0.533,0.69,0.85,1.225,0.706l3.863-1.035c0.533-0.143,0.85-0.69,0.707-1.225C12.539,36.644,11.99,36.327,11.457,36.47z" style="fill: rgb(255, 255, 255); stroke-width: 0px; stroke-miterlimit: 1;"/>
          <path fill-rule="evenodd" clip-rule="evenodd" d="M49.32,22c0.277,0.479,0.888,0.643,1.367,0.366l8.66-5 c0.479-0.276,0.643-0.888,0.365-1.366c-0.275-0.479-0.887-0.642-1.365-0.365l-8.66,5C49.208,20.912,49.045,21.521,49.32,22z" style="fill: rgb(255, 255, 255); stroke-width: 0px; stroke-miterlimit: 1;"/>
          <path fill-rule="evenodd" clip-rule="evenodd" d="M17.858,46.143c-0.39-0.391-1.023-0.389-1.414,0l-2.828,2.828 c-0.391,0.391-0.39,1.025,0.001,1.415c0.39,0.391,1.022,0.39,1.413-0.001l2.828-2.828C18.249,47.168,18.249,46.534,17.858,46.143z" style="fill: rgb(255, 255, 255); stroke-width: 0px; stroke-miterlimit: 1;"/>
          <path fill-rule="evenodd" clip-rule="evenodd" d="M42,14.68c0.479,0.276,1.09,0.113,1.367-0.366l5-8.66 C48.644,5.175,48.48,4.563,48,4.287c-0.478-0.276-1.088-0.112-1.365,0.366l-4.999,8.661C41.358,13.793,41.522,14.403,42,14.68z" style="fill: rgb(255, 255, 255); stroke-width: 0px; stroke-miterlimit: 1;"/>
          <path fill-rule="evenodd" clip-rule="evenodd" d="M26.824,51.318c-0.532-0.143-1.08,0.176-1.225,0.707l-1.035,3.863 c-0.143,0.535,0.176,1.083,0.709,1.226c0.533,0.144,1.08-0.173,1.223-0.708l1.035-3.863C27.676,52.012,27.359,51.463,26.824,51.318 z" style="fill: rgb(255, 255, 255); stroke-width: 0px; stroke-miterlimit: 1;"/>
          <path fill-rule="evenodd" clip-rule="evenodd" d="M32,12c0.554,0,1.001-0.446,1.002-1V1c0-0.553-0.447-1-1.002-1 c-0.551,0-0.998,0.447-0.999,1l0.001,10C31.002,11.553,31.449,12,32,12z" style="fill: rgb(255, 255, 255); stroke-width: 0px; stroke-miterlimit: 1;"/>
          <path fill-rule="evenodd" clip-rule="evenodd" d="M38.402,52.025c-0.141-0.532-0.689-0.85-1.225-0.707 c-0.533,0.143-0.848,0.692-0.707,1.225l1.035,3.863c0.144,0.535,0.693,0.85,1.227,0.707s0.849-0.689,0.705-1.225L38.402,52.025z" style="fill: rgb(255, 255, 255); stroke-width: 0px; stroke-miterlimit: 1;"/>
          <path fill-rule="evenodd" clip-rule="evenodd" d="M20.637,14.312c0.275,0.479,0.887,0.643,1.363,0.367 c0.48-0.277,0.645-0.887,0.368-1.367l-5-8.66C17.092,4.174,16.48,4.01,16,4.287c-0.477,0.275-0.641,0.887-0.365,1.365 L20.637,14.312z" style="fill: rgb(255, 255, 255); stroke-width: 0px; stroke-miterlimit: 1;"/>
          <path fill-rule="evenodd" clip-rule="evenodd" d="M47.558,46.142c-0.388-0.39-1.022-0.39-1.414,0 c-0.391,0.39-0.388,1.024,0,1.414l2.828,2.828c0.392,0.392,1.025,0.389,1.415-0.001c0.391-0.39,0.391-1.021-0.001-1.413 L47.558,46.142z" style="fill: rgb(255, 255, 255); stroke-width: 0px; stroke-miterlimit: 1;"/>
          <path fill-rule="evenodd" clip-rule="evenodd" d="M4.654,17.365l8.662,4.999c0.477,0.276,1.088,0.113,1.363-0.364 c0.277-0.479,0.115-1.09-0.364-1.367l-8.661-5C5.176,15.356,4.564,15.52,4.287,16C4.013,16.477,4.176,17.089,4.654,17.365z" style="fill: rgb(255, 255, 255); stroke-width: 0px; stroke-miterlimit: 1;"/>
          <path fill-rule="evenodd" clip-rule="evenodd" d="M52.027,38.4l3.863,1.035c0.535,0.145,1.082-0.176,1.225-0.709 c0.144-0.532-0.172-1.079-0.707-1.223l-3.863-1.035c-0.531-0.145-1.081,0.173-1.225,0.707C51.176,37.709,51.496,38.256,52.027,38.4 z" style="fill: rgb(255, 255, 255); stroke-width: 0px; stroke-miterlimit: 1;"/>
          <path fill-rule="evenodd" clip-rule="evenodd" d="M12,32c0.001-0.554-0.445-1-0.998-1.002L1,31 c-0.552,0-1,0.445-1,1c0.001,0.551,0.448,1,1.001,1l10.001-0.002C11.553,32.998,12.001,32.552,12,32z" style="fill: rgb(255, 255, 255); stroke-width: 0px; stroke-miterlimit: 1;"/>
          <path fill-rule="evenodd" clip-rule="evenodd" d="M52.545,27.529l3.863-1.035c0.535-0.143,0.85-0.693,0.706-1.227 c-0.142-0.531-0.688-0.848-1.224-0.705l-3.863,1.035c-0.533,0.141-0.85,0.691-0.707,1.225 C51.461,27.356,52.012,27.67,52.545,27.529z" style="fill: rgb(255, 255, 255); stroke-width: 0px; stroke-miterlimit: 1;"/>
          <path fill-rule="evenodd" clip-rule="evenodd" d="M14.68,42c-0.275-0.48-0.886-0.644-1.365-0.368l-8.661,5.002 C4.176,46.91,4.01,47.52,4.287,48c0.277,0.477,0.889,0.641,1.367,0.365l8.66-5.002C14.791,43.088,14.957,42.479,14.68,42z" style="fill: rgb(255, 255, 255); stroke-width: 0px; stroke-miterlimit: 1;"/>
          <path fill-rule="evenodd" clip-rule="evenodd" d="M46.144,17.856c0.389,0.392,1.022,0.388,1.414,0l2.828-2.828 c0.392-0.392,0.39-1.024-0.002-1.415c-0.388-0.39-1.021-0.391-1.412,0.001l-2.828,2.828C45.752,16.83,45.754,17.466,46.144,17.856z " style="fill: rgb(255, 255, 255); stroke-width: 0px; stroke-miterlimit: 1;"/>
          <path fill-rule="evenodd" clip-rule="evenodd" d="M22,49.32c-0.479-0.277-1.088-0.113-1.365,0.364l-5,8.663 c-0.275,0.478-0.115,1.088,0.365,1.365c0.479,0.274,1.09,0.11,1.367-0.367l4.998-8.662C22.641,50.207,22.48,49.597,22,49.32z" style="fill: rgb(255, 255, 255); stroke-width: 0px; stroke-miterlimit: 1;"/>
          <path fill-rule="evenodd" clip-rule="evenodd" d="M37.178,12.68c0.531,0.145,1.078-0.176,1.225-0.707l1.035-3.863 c0.143-0.535-0.176-1.083-0.709-1.225c-0.531-0.144-1.08,0.172-1.223,0.707l-1.035,3.863C36.324,11.986,36.645,12.536,37.178,12.68 z" style="fill: rgb(255, 255, 255); stroke-width: 0px; stroke-miterlimit: 1;"/>
          <path fill-rule="evenodd" clip-rule="evenodd" d="M32,52c-0.553-0.002-0.998,0.446-1,0.998l0.002,10.004 C31.002,63.552,31.445,64,32,64c0.553,0,1-0.449,1.001-1l-0.003-10.002C32.998,52.447,32.555,52,32,52z" style="fill: rgb(255, 255, 255); stroke-width: 0px; stroke-miterlimit: 1;"/>
          <path fill-rule="evenodd" clip-rule="evenodd" d="M25.6,11.973c0.139,0.533,0.691,0.85,1.225,0.707 c0.532-0.141,0.846-0.691,0.707-1.225l-1.035-3.863c-0.145-0.535-0.693-0.851-1.227-0.706c-0.531,0.142-0.85,0.688-0.705,1.224 L25.6,11.973z" style="fill: rgb(255, 255, 255); stroke-width: 0px; stroke-miterlimit: 1;"/>
          <path fill-rule="evenodd" clip-rule="evenodd" d="M43.363,49.687c-0.275-0.478-0.883-0.644-1.363-0.365 c-0.479,0.274-0.641,0.885-0.367,1.364l5.004,8.661c0.275,0.478,0.883,0.644,1.363,0.366c0.479-0.277,0.642-0.889,0.367-1.367 L43.363,49.687z" style="fill: rgb(255, 255, 255); stroke-width: 0px; stroke-miterlimit: 1;"/>
          <path fill-rule="evenodd" clip-rule="evenodd" d="M16.443,17.856c0.387,0.394,1.023,0.39,1.414,0 c0.391-0.388,0.387-1.021,0-1.414l-2.828-2.828c-0.393-0.392-1.025-0.39-1.415,0.002c-0.39,0.388-0.392,1.021,0.001,1.412 L16.443,17.856z" style="fill: rgb(255, 255, 255); stroke-width: 0px; stroke-miterlimit: 1;"/>
          <path fill-rule="evenodd" clip-rule="evenodd" d="M59.348,46.633l-8.663-4.997 c-0.478-0.276-1.087-0.116-1.363,0.366c-0.278,0.477-0.112,1.086,0.364,1.364l8.664,4.999c0.477,0.275,1.086,0.115,1.363-0.365 C59.988,47.521,59.824,46.91,59.348,46.633z" style="fill: rgb(255, 255, 255); stroke-width: 0px; stroke-miterlimit: 1;"/>
          <path fill-rule="evenodd" clip-rule="evenodd" d="M11.974,25.599L8.11,24.563c-0.536-0.144-1.083,0.175-1.225,0.708 c-0.144,0.531,0.171,1.08,0.707,1.225l3.863,1.034c0.531,0.146,1.081-0.175,1.225-0.707C12.825,26.293,12.505,25.746,11.974,25.599 z" style="fill: rgb(255, 255, 255); stroke-width: 0px; stroke-miterlimit: 1;"/>
        </g>
      </g>
    </g>
    <g style="transform-origin: 250px 270px;" transform="matrix(0.899998, 0, 0, 0.899998, -0.000029, -41.999989)">
      <path d="M 227.518 300 C 226.571 300 225.663 300.376 224.993 301.046 C 223.599 302.441 223.599 304.701 224.993 306.096 L 246.429 327.529 L 246.429 335.39 L 234.619 324 C 233.938 323.345 233.025 322.986 232.08 323.003 C 231.132 323.018 230.228 323.409 229.569 324.091 C 228.201 325.512 228.245 327.773 229.666 329.14 L 246.429 345.315 L 246.429 352.806 L 221.938 366.881 L 215.311 360.255 L 215.729 336.966 C 215.764 334.996 214.198 333.37 212.228 333.332 C 210.252 333.293 208.621 334.865 208.587 336.841 L 208.294 353.238 L 200.202 345.147 C 199.532 344.478 198.624 344.101 197.677 344.101 C 196.73 344.101 195.822 344.478 195.152 345.147 C 193.758 346.542 193.758 348.803 195.152 350.197 L 203.243 358.288 L 186.844 358.581 C 184.869 358.615 183.297 360.246 183.335 362.221 C 183.374 364.191 185 365.758 186.97 365.723 L 210.261 365.304 L 215.52 370.563 L 208.935 374.351 C 207.827 374.986 207.144 376.161 207.143 377.433 L 207.143 396.419 L 197.272 396.419 L 180.141 378.661 C 178.774 377.244 176.518 377.2 175.097 378.563 C 173.676 379.931 173.632 382.192 175 383.613 L 187.353 396.419 L 177.532 396.419 L 156.096 374.985 C 155.426 374.316 154.518 373.939 153.571 373.939 C 152.624 373.939 151.715 374.316 151.046 374.985 C 149.651 376.38 149.651 378.641 151.046 380.035 L 171.003 399.99 L 151.046 419.944 C 149.651 421.339 149.651 423.6 151.046 424.994 C 152.44 426.388 154.701 426.388 156.096 424.994 L 177.532 403.561 L 185.428 403.561 L 175 414.372 C 173.636 415.792 173.68 418.048 175.097 419.414 C 176.516 420.779 178.772 420.739 180.14 419.324 L 195.354 403.561 L 207.143 403.561 L 207.143 422.546 C 207.144 423.818 207.827 424.994 208.935 425.629 L 215.52 429.416 L 210.261 434.675 L 186.97 434.257 C 185 434.222 183.373 435.788 183.335 437.758 C 183.296 439.733 184.869 441.364 186.844 441.399 L 203.243 441.692 L 195.152 449.782 C 193.757 451.177 193.757 453.437 195.152 454.832 C 196.546 456.226 198.807 456.226 200.202 454.832 L 208.294 446.741 L 208.586 463.139 C 208.621 465.114 210.252 466.686 212.228 466.647 C 214.197 466.609 215.764 464.983 215.729 463.013 L 215.311 439.725 L 221.938 433.099 L 246.428 447.174 L 246.428 452.67 L 229.666 468.837 C 228.245 470.205 228.201 472.466 229.569 473.887 C 230.936 475.308 233.198 475.352 234.619 473.984 L 246.429 462.595 L 246.429 472.471 L 224.993 493.905 C 223.599 495.299 223.599 497.56 224.993 498.954 C 226.388 500.348 228.648 500.348 230.043 498.954 L 250 479 L 269.957 498.954 C 271.352 500.348 273.612 500.348 275.007 498.954 C 276.401 497.56 276.401 495.299 275.007 493.905 L 253.571 472.471 L 253.571 462.595 L 265.381 473.985 C 266.802 475.352 269.064 475.309 270.431 473.887 C 271.799 472.466 271.755 470.205 270.334 468.838 L 253.571 452.67 L 253.571 447.174 L 278.062 433.099 L 286.182 441.217 L 285.763 464.506 C 285.728 466.476 287.295 468.102 289.265 468.14 C 291.24 468.179 292.872 466.607 292.906 464.632 L 293.199 448.234 L 299.798 454.832 C 301.193 456.226 303.453 456.226 304.848 454.832 C 306.242 453.438 306.242 451.177 304.848 449.782 L 298.249 443.184 L 314.649 442.891 C 316.624 442.857 318.196 441.226 318.157 439.251 C 318.119 437.281 316.493 435.714 314.523 435.749 L 291.232 436.168 L 284.48 429.416 L 291.065 425.629 C 292.173 424.994 292.856 423.818 292.857 422.546 L 292.857 403.561 L 304.646 403.561 L 319.859 419.324 C 321.228 420.739 323.484 420.779 324.903 419.414 C 326.32 418.048 326.364 415.792 325 414.372 L 314.572 403.561 L 322.468 403.561 L 343.904 424.994 C 345.299 426.388 347.56 426.388 348.954 424.994 C 350.349 423.6 350.349 421.339 348.954 419.944 L 328.997 399.99 L 348.954 380.035 C 350.349 378.641 350.349 376.38 348.954 374.985 C 348.285 374.316 347.376 373.939 346.429 373.939 C 345.482 373.939 344.574 374.316 343.904 374.985 L 322.468 396.419 L 312.647 396.419 L 325 383.613 C 326.368 382.192 326.324 379.931 324.903 378.563 C 324.222 377.908 323.309 377.549 322.364 377.566 C 321.417 377.585 320.516 377.978 319.859 378.661 L 302.728 396.419 L 292.857 396.419 L 292.857 377.433 C 292.856 376.161 292.173 374.986 291.065 374.351 L 284.48 370.563 L 291.232 363.812 L 314.523 364.23 C 316.493 364.265 318.119 362.699 318.157 360.729 C 318.196 358.754 316.624 357.123 314.649 357.088 L 298.249 356.795 L 304.848 350.197 C 306.243 348.803 306.243 346.542 304.848 345.148 C 304.179 344.478 303.27 344.101 302.323 344.101 C 301.376 344.101 300.468 344.478 299.798 345.148 L 293.199 351.746 L 292.906 335.348 C 292.872 333.373 291.24 331.801 289.265 331.84 C 287.295 331.878 285.728 333.504 285.763 335.474 L 286.182 358.762 L 278.062 366.881 L 253.571 352.806 L 253.571 345.315 L 270.334 329.14 C 271.755 327.773 271.799 325.512 270.431 324.091 C 269.062 322.671 266.8 322.63 265.381 324 L 253.571 335.39 L 253.571 327.529 L 275.007 306.096 C 276.401 304.701 276.401 302.441 275.007 301.046 C 273.612 299.652 271.352 299.652 269.957 301.046 L 250 321.001 L 230.043 301.046 C 229.373 300.376 228.465 300 227.518 300 Z M 250 358.985 L 285.701 379.491 L 285.701 420.488 L 250 440.994 L 222.844 425.399 C 222.799 425.37 222.752 425.342 222.705 425.315 L 214.299 420.489 L 214.299 379.491 L 250 358.985 Z" id="path866" style="color: rgb(0, 0, 0); fill-rule: evenodd; stroke-linecap: round; stroke-linejoin: round; stroke-miterlimit: 4.1; fill: rgb(255, 255, 255);"/>
      <path d="M 250.007 358.778 L 285.751 379.415 L 285.751 420.689 L 250.007 441.326 L 214.263 420.689 L 214.263 379.415 Z" style="stroke: rgba(0, 0, 0, 0); fill: rgb(171, 240, 255);" bx:shape="n-gon 250.007 400.052 41.274 41.274 6 0 1@ee3fbfc8"/>
    </g>
    <rect style="fill: rgb(255, 255, 255);" x="150" y="247.5" width="200" height="5" rx="2.5" ry="2.5"/>
  </g>
</svg>