<?xml version="1.0" encoding="utf-8"?>
<svg width="799.5085px" height="902.3628px" viewBox="-142.7453 766.2312 799.5085 902.3628" xmlns="http://www.w3.org/2000/svg">
  <path d="M 255.601 767.503 C 251.808 770.416 251.741 771.584 252.757 817.328 C 253.86 866.969 253.664 865.779 261.053 867.652 C 264.112 868.427 265.183 868.244 267.457 866.556 C 272.884 862.527 272.878 862.576 272.172 825.721 C 271.814 807.021 271.183 787.037 270.77 781.312 C 270.074 771.67 269.818 770.73 267.298 768.562 C 264.285 765.97 258.303 765.428 255.601 767.503 M 100.488 811.267 C 97.752 814.003 97.492 814.791 97.926 819.017 C 98.192 821.604 101.342 831.146 104.925 840.221 C 108.508 849.296 114 864.461 117.13 873.92 C 120.26 883.38 123.696 892.233 124.766 893.593 C 127.36 896.891 131.724 897.771 135.585 895.774 C 139.12 893.946 140.688 891.449 140.688 887.648 C 140.688 882.78 130.269 851.626 118.719 821.955 C 115.317 813.217 113.987 810.91 111.658 809.705 C 107.203 807.402 103.89 807.865 100.488 811.267 M 398.8 814.971 C 396.937 816.725 393.826 822.608 390.207 831.221 C 387.087 838.646 380.519 852.21 375.611 861.364 C 370.703 870.518 366.688 879.215 366.688 880.691 C 366.688 884.618 371.653 889.221 375.889 889.221 C 377.733 889.221 380.26 888.508 381.504 887.638 C 382.831 886.708 389.289 875.011 397.14 859.316 C 404.497 844.611 411.613 831.261 412.954 829.65 C 418.345 823.171 418.745 819.084 414.44 814.471 C 412.771 812.684 411.247 812.221 407.029 812.221 C 402.611 812.221 401.229 812.683 398.8 814.971 M 539.007 845.292 C 537.258 846.413 534.498 849.443 532.873 852.025 C 531.249 854.608 523.476 866.846 515.601 879.221 C 507.725 891.596 495.523 911.345 488.485 923.107 C 474.517 946.449 473.717 948.818 478.082 953.893 C 481.288 957.619 487.384 957.794 491.139 954.267 C 492.549 952.943 500.092 941.253 507.902 928.29 C 515.712 915.327 528.749 894.424 536.874 881.839 C 545.001 869.252 551.933 857.434 552.282 855.572 C 553.116 851.126 551.127 846.5 547.597 844.674 C 543.922 842.774 542.815 842.853 539.007 845.292 M -50.812 870.382 C -54.233 872.263 -56.267 875.574 -56.29 879.3 C -56.316 883.555 -51.048 890.805 -33.823 910.221 C -19.229 926.67 -11.981 936.097 -7.128 944.939 C -3.595 951.376 13.57 972.83 18.9 977.471 C 24.102 982.001 33.688 977.171 33.688 970.02 C 33.688 966.086 32.457 964.111 24.15 954.721 C 16.776 946.385 7.087 933.074 6.119 929.951 C 5.393 927.605 -0.693 920.112 -21.277 896.221 C -28.148 888.246 -34.939 879.471 -36.368 876.721 C -39.933 869.862 -45.457 867.437 -50.812 870.382 M 252.688 935.877 C 223.362 939.45 204.849 944.697 177.676 957.14 C 145.695 971.785 138.591 976.503 113.78 999.576 C 87.418 1024.092 70.031 1047.461 55.638 1077.721 C 41.302 1107.861 36.158 1133.183 36.236 1173.221 C 36.326 1219.162 41.901 1241.439 61.344 1273.546 C 73.956 1294.374 78.917 1301.179 90.133 1313.042 C 102.549 1326.173 109.134 1334.069 113.645 1341.231 C 115.546 1344.251 119.65 1349.871 122.765 1353.721 C 132.53 1365.791 148.503 1394.868 155.162 1412.694 C 160.249 1426.313 163.947 1444.087 165.154 1460.721 C 165.907 1471.095 169.406 1496.652 170.733 1501.465 C 172.186 1506.737 176.102 1508.629 183.554 1507.659 C 186.653 1507.256 209.663 1506.877 234.688 1506.817 C 267.064 1506.74 281.742 1506.35 285.574 1505.465 C 292.76 1503.806 306.283 1503.921 316.505 1505.729 C 322.703 1506.825 325.973 1506.942 329.34 1506.187 C 335.159 1504.883 341.355 1501.711 342.589 1499.405 C 343.122 1498.41 343.56 1493.124 343.563 1487.659 C 343.569 1475.138 345.888 1459.418 350.193 1442.721 C 357.406 1414.74 368.114 1393.828 386.34 1372.123 C 390.683 1366.952 397.121 1358.896 400.648 1354.221 C 404.175 1349.546 411.16 1340.996 416.17 1335.221 C 441.908 1305.558 454.249 1287.999 465.629 1264.852 C 473.955 1247.916 476.545 1240.242 481.13 1218.917 C 492.855 1164.385 492.517 1118.208 480.086 1076.221 C 474.694 1058.009 467.986 1042.822 460.43 1031.721 C 452.875 1020.62 433.685 997.337 427.88 992.227 C 419.071 984.472 398.636 969.883 388.907 964.401 C 369.661 953.557 341.217 942.527 321.188 938.141 C 312.467 936.231 307.67 935.919 283.688 935.7 C 268.563 935.563 254.613 935.642 252.688 935.877 M 255.609 951.272 C 248.368 951.793 242.688 952.856 237.609 954.642 C 233.527 956.078 224.621 959.116 217.817 961.394 C 203.866 966.066 180.145 977.434 155.688 991.17 C 132.946 1003.943 128.373 1007.378 111.136 1024.644 C 93.333 1042.475 85.028 1054.195 72.372 1079.344 C 56.609 1110.668 51.638 1133.426 51.644 1174.23 C 51.65 1216.976 57.657 1238.691 78.751 1272.221 C 87.627 1286.33 94.38 1294.959 106.572 1307.768 C 129.314 1331.662 153.007 1367.931 166.967 1400.221 C 174.903 1418.575 176.768 1426.969 182.194 1468.721 C 183.624 1479.721 185.332 1489.251 185.991 1489.899 C 186.866 1490.76 199.405 1491.141 232.688 1491.317 C 271.656 1491.522 279.463 1491.317 287.069 1489.889 C 297.797 1487.874 303.127 1487.838 311.688 1489.721 C 326.082 1492.887 328.637 1491.582 327.001 1481.903 C 326.116 1476.663 326.312 1473.78 328.291 1462.987 C 332.541 1439.801 335.104 1431.422 347.846 1399.057 C 360.3 1367.422 368.708 1354.633 388.154 1337.743 C 399.966 1327.484 409.68 1317.332 416.282 1308.345 C 419.495 1303.973 423.414 1299.633 424.991 1298.701 C 428.598 1296.57 444.224 1273.098 450.941 1259.721 C 457.792 1246.075 460.279 1239.137 464.314 1222.402 C 470.783 1195.578 472.823 1179.605 473.409 1151.193 C 473.978 1123.565 473.351 1115.668 469.041 1096.221 C 463.756 1072.371 454.317 1049.924 443.546 1035.591 C 428.56 1015.648 422.445 1008.278 417.076 1003.69 C 393.854 983.848 379.299 975.227 348.014 962.783 C 320.199 951.72 294.27 948.49 255.609 951.272 M 573.399 992.295 C 563.035 997.597 543.492 1004.916 531.011 1008.17 C 525.13 1009.703 521.298 1014.407 522.055 1019.166 C 522.745 1023.504 526.727 1027.221 530.686 1027.221 C 532.273 1027.221 538.885 1025.621 545.38 1023.666 C 569.771 1016.322 592.443 1005.529 595.371 999.867 C 598.414 993.983 594.085 986.19 587.803 986.243 C 586.365 986.255 579.883 988.979 573.399 992.295 M -103.009 1011.418 C -105.891 1012.81 -108.628 1018.625 -107.753 1021.497 C -107.38 1022.72 -106.341 1024.561 -105.444 1025.587 C -103.334 1027.999 -34.977 1062.221 -32.268 1062.221 C -24.036 1062.221 -19.741 1051.912 -25.663 1046.367 C -28.888 1043.348 -95.754 1010.211 -98.465 1010.289 C -99.756 1010.326 -101.801 1010.834 -103.009 1011.418 M 138.093 1042.065 C 130.182 1048.431 127.235 1051.315 121.173 1058.627 C 99.958 1084.211 86.878 1115.628 81.191 1154.654 C 79.411 1166.869 79.992 1170.127 84.303 1172.091 C 87.856 1173.71 89.249 1173.511 92.121 1170.971 C 94.332 1169.015 94.932 1167.021 96.703 1155.721 C 101.795 1123.252 109.139 1103.1 124.246 1080.15 C 130.108 1071.244 140.117 1059.995 148.921 1052.416 C 153.674 1048.325 154.61 1044.937 151.969 1041.384 C 148.735 1037.034 144.059 1037.264 138.093 1042.065 M 645.235 1112.007 C 644.922 1112.32 621.507 1112.609 593.201 1112.649 L 541.736 1112.721 L 538.985 1115.471 C 535.09 1119.364 535.104 1125.462 539.016 1128.827 L 541.8 1131.221 L 572.494 1131.471 C 610.737 1131.782 637.319 1131.499 645.374 1130.694 C 654.955 1129.736 658.963 1124.308 655.578 1116.878 C 654.14 1113.723 646.919 1110.323 645.235 1112.007 M -39.812 1162.312 C -49.712 1162.735 -69.512 1163.326 -83.812 1163.625 C -117.053 1164.32 -135.866 1165.699 -138.859 1167.66 C -144.035 1171.051 -144.042 1179.386 -138.872 1182.774 C -136.567 1184.284 -134.006 1184.333 -110.077 1183.326 C -95.631 1182.718 -76.565 1182.22 -67.709 1182.221 C -40.658 1182.221 -11.394 1180.383 -8.173 1178.48 C -2.192 1174.947 -2.292 1165.834 -8.346 1162.704 C -11.41 1161.119 -11.81 1161.114 -39.812 1162.312 M 501.765 1235.81 C 499.309 1237.876 498.688 1239.177 498.688 1242.254 C 498.688 1247.658 500.724 1249.49 518.688 1260.24 C 537.457 1271.473 554.913 1282.798 576.039 1297.447 C 594.604 1310.32 597.698 1311.365 602.64 1306.423 C 604.956 1304.107 605.688 1302.472 605.688 1299.618 C 605.688 1296.441 604.978 1295.2 601.09 1291.578 C 597.003 1287.773 522.48 1239.513 513.727 1235.004 C 508.931 1232.534 505.373 1232.774 501.765 1235.81 M 413.842 1245.971 C 412.705 1246.933 410.621 1250.836 409.211 1254.642 C 402.336 1273.21 391.732 1284.243 370.688 1294.721 C 358.943 1300.569 350.204 1306.695 344.692 1312.944 C 334.012 1325.051 318.224 1352.165 310.758 1371.221 C 300.662 1396.989 300.187 1403.802 308.345 1405.85 C 313.295 1407.092 315.783 1403.747 320.418 1389.616 C 325.14 1375.221 336.766 1350.877 344.702 1338.766 C 350.478 1329.952 359.764 1319.807 366.753 1314.674 C 369.264 1312.83 376.873 1308.509 383.661 1305.072 C 393.965 1299.854 397.269 1297.576 403.676 1291.272 C 407.897 1287.119 413.084 1280.826 415.203 1277.287 C 420.787 1267.963 425.662 1256.268 425.676 1252.16 C 425.699 1245.419 418.773 1241.797 413.842 1245.971 M 10.446 1298.339 C 5.298 1303.336 -17.664 1321.135 -37.052 1335.157 C -57.508 1349.952 -61.326 1354.775 -58.039 1361.667 C -56.251 1365.417 -51.553 1367.749 -47.723 1366.788 C -46.277 1366.425 -42.781 1363.967 -39.953 1361.326 C -37.125 1358.684 -29.637 1352.777 -23.312 1348.199 C -2.683 1333.267 20.092 1315.802 23.931 1311.971 C 27.173 1308.735 27.688 1307.598 27.688 1303.673 C 27.688 1297.753 24.271 1294.221 18.543 1294.221 C 15.383 1294.221 13.927 1294.962 10.446 1298.339 M 445.188 1354.382 C 439.81 1357.339 438.345 1362.723 441.342 1368.521 C 442.252 1370.281 456.796 1385.671 473.663 1402.721 C 490.53 1419.771 507.011 1437.321 510.288 1441.721 C 515.941 1449.311 516.463 1449.737 520.485 1450.029 C 524.076 1450.291 525.182 1449.881 527.707 1447.356 C 534.163 1440.9 530.654 1434.503 506.882 1409.392 C 478.331 1379.233 455.388 1356.133 452.488 1354.625 C 449.28 1352.957 447.864 1352.91 445.188 1354.382 M 72.888 1371.793 C 71.654 1372.658 69.35 1375.92 67.769 1379.043 C 66.188 1382.166 57.807 1396.871 49.144 1411.721 C 40.482 1426.571 30.986 1442.86 28.041 1447.918 C 21.569 1459.038 21.12 1462.724 25.765 1466.632 C 31.329 1471.314 37.319 1469.844 40.817 1462.938 C 41.992 1460.618 52.4 1442.756 63.946 1423.242 C 75.492 1403.729 85.549 1386.033 86.295 1383.917 C 87.441 1380.669 87.438 1379.559 86.276 1376.777 C 83.755 1370.745 77.637 1368.467 72.888 1371.793 M 239.688 1519.793 C 238.863 1519.98 221.988 1521.091 202.188 1522.262 C 175.71 1523.828 165.598 1524.768 163.956 1525.817 C 162.728 1526.602 159.656 1530.726 157.13 1534.982 C 152.585 1542.637 152.542 1542.797 153.083 1549.721 C 153.604 1556.389 153.446 1557.077 149.758 1564.221 C 143.016 1577.282 142.729 1582.551 148.394 1589.283 C 150.77 1592.107 150.91 1592.717 149.855 1595.635 C 147.018 1603.481 150.205 1612.893 157.444 1618.048 C 160.993 1620.574 174.637 1627.221 176.275 1627.221 C 176.904 1627.221 178.604 1628.154 180.053 1629.294 C 182.157 1630.948 182.684 1632.208 182.668 1635.544 C 182.657 1637.841 184.105 1644.408 185.887 1650.136 C 189.504 1661.765 193.057 1666.436 199.636 1668.207 C 202.062 1668.86 221.869 1668.687 259.229 1667.685 C 324.027 1665.948 339.126 1665.08 343.455 1662.841 C 350.38 1659.261 353.227 1651.934 354.19 1635.221 C 355.041 1620.442 354.82 1620.962 361.821 1617.231 C 377.058 1609.109 381.813 1600.465 377.721 1588.319 C 375.206 1580.853 375.19 1579.558 377.599 1578.269 C 378.649 1577.706 380.52 1575.611 381.755 1573.612 C 386.02 1566.711 383.525 1556.249 376.298 1550.737 C 372.971 1548.199 372.881 1547.941 372.539 1539.842 C 372.235 1532.662 371.804 1530.993 369.326 1527.419 C 367.7 1525.073 364.651 1522.413 362.261 1521.256 C 358.17 1519.276 356.474 1519.224 299.622 1519.337 C 267.483 1519.401 240.513 1519.606 239.688 1519.793 M 259.188 1533.875 C 227.639 1535.175 176.133 1538.517 174.219 1539.389 C 172.942 1539.971 170.937 1541.746 169.763 1543.334 L 167.629 1546.22 L 172.158 1549.413 C 175.975 1552.103 176.688 1553.127 176.688 1555.914 C 176.688 1559.367 173.828 1563.221 171.265 1563.221 C 168.953 1563.221 163.756 1568.168 161.574 1572.444 C 159.371 1576.763 159.649 1579.221 162.341 1579.221 C 165.684 1579.221 172.258 1583.223 174.135 1586.401 L 176.038 1589.623 L 169.624 1595.431 C 161.826 1602.494 161.983 1603.074 173.225 1608.721 L 181.188 1612.721 L 204.688 1612.633 C 229.184 1612.54 247.481 1611.459 278.688 1608.26 C 288.863 1607.217 308.541 1606.115 322.416 1605.81 C 344.473 1605.326 348.433 1604.992 353.916 1603.153 C 361.723 1600.534 363.688 1598.822 363.688 1594.637 C 363.688 1588.565 363.363 1588.489 334.976 1587.955 C 305.372 1587.399 279.05 1584.51 274.688 1581.339 C 270.888 1578.577 270.739 1573.121 274.384 1570.217 C 276.997 1568.136 277.871 1568.023 287.188 1568.571 C 292.688 1568.895 303.263 1570.071 310.688 1571.186 C 325.539 1573.415 351.489 1573.959 357.907 1572.177 C 361.958 1571.052 367.688 1566.758 367.688 1564.848 C 367.688 1564.19 366.449 1562.92 364.935 1562.026 C 362.779 1560.752 361.205 1560.588 357.685 1561.267 C 355.211 1561.744 346.305 1562.153 337.893 1562.177 C 322.959 1562.22 322.539 1562.163 320.143 1559.766 C 317.137 1556.761 316.824 1551.313 319.517 1548.876 C 321.044 1547.494 323.772 1547.221 336.066 1547.221 C 352.2 1547.221 356.151 1546.207 357.262 1541.782 C 358.516 1536.787 357.586 1535.766 351.175 1535.091 C 344.208 1534.357 270.982 1533.39 259.188 1533.875 M 300.188 1620.877 C 297.988 1621.065 292.813 1621.671 288.688 1622.223 C 280.061 1623.379 232.944 1626.788 212.003 1627.772 C 201.811 1628.251 197.678 1628.804 197.321 1629.735 C 196.53 1631.796 199.311 1643.507 201.859 1648.843 L 204.188 1653.721 L 213.049 1653.37 C 217.923 1653.177 225.503 1653.603 229.894 1654.316 C 237.042 1655.477 239.777 1655.381 256.033 1653.402 C 269.252 1651.793 279.354 1651.212 293.188 1651.264 C 318.256 1651.358 335.72 1649.897 337.428 1647.562 C 338.209 1646.494 338.734 1642.208 338.81 1636.28 C 338.877 1631.022 338.989 1625.371 339.06 1623.721 L 339.188 1620.721 L 321.688 1620.628 C 312.063 1620.577 302.388 1620.689 300.188 1620.877" stroke="none" fill="#fffcfc" fill-rule="evenodd" transform="matrix(0.9999999999999999, 0, 0, 0.9999999999999999, 0, 0)"/>
</svg>